<?xml version="1.0" encoding="UTF-8"?>
<svg version="1.1" xmlns="http://www.w3.org/2000/svg" width="512" height="512">
<path d="M0 0 C4.14022268 0.69003711 7.37959218 1.34272706 11.24365234 2.6796875 C12.25137695 3.02583099 13.25910156 3.37197449 14.29736328 3.72860718 C15.38259277 4.10691681 16.46782227 4.48522644 17.5859375 4.875 C18.73384766 5.27111481 19.88175781 5.66722961 21.06445312 6.0753479 C24.18571329 7.15383572 27.30537522 8.23672267 30.42430878 9.32190704 C33.04667434 10.23348525 35.67028596 11.14144841 38.2938633 12.04953194 C56.96560905 18.51353412 75.6003803 25.08012437 94.21630859 31.703125 C108.78353872 36.88217354 123.38459738 41.95864794 138 47 C155.68353658 53.09993016 173.33419913 59.28468632 190.95898438 65.55224609 C206.61158512 71.11629682 222.29600055 76.58281918 238 82 C255.68350537 88.10002225 273.33419815 94.28468598 290.95898438 100.55224609 C306.61158512 106.11629682 322.29600055 111.58281918 338 117 C354.69375698 122.75860311 371.36162022 128.58328287 388 134.5 C410.39817367 142.46469689 432.85704322 150.24881511 455.32946777 158.00115967 C464.89678555 161.30424322 474.45013989 164.64682622 484 168 C484 168.33 484 168.66 484 169 C324.28 169 164.56 169 0 169 C0 113.23 0 57.46 0 0 Z " fill="#FE8701" transform="translate(14,343)"/>
<path d="M0 0 C2.91834217 1.31483573 4.94920929 2.71633276 7.171875 5.01171875 C8.03848755 5.89573364 8.03848755 5.89573364 8.92260742 6.79760742 C9.52564697 7.42127197 10.12868652 8.04493652 10.75 8.6875 C15.0377586 13.05461051 19.33641368 17.27598159 24.01171875 21.23046875 C27.12284002 23.99930556 30.01071079 26.99043111 32.93432617 29.95385742 C36.13368174 33.17981424 39.44785184 36.18003794 42.90625 39.12109375 C45.54960022 41.49320468 48.01654298 44.0261224 50.5 46.5625 C59.92780813 56.15161752 59.92780813 56.15161752 72.3125 60.375 C78.74917515 59.72042287 83.77368922 56.93069591 88 52 C91.49086922 53.46616507 93.41718814 55.33280412 95.875 58.1875 C99.24118172 62.03139067 102.66643849 65.79420847 106.17700195 69.50683594 C117.94431338 81.96912317 126.6674308 91.44865266 128.44213867 109.07836914 C128.61836006 110.70185524 128.61836006 110.70185524 128.79814148 112.35813904 C129.18167528 115.91613366 129.55005158 119.47551569 129.91796875 123.03515625 C130.18190424 125.51810791 130.44667207 128.00097121 130.7122345 130.48374939 C131.33646358 136.34274073 131.95074226 142.20271185 132.56064826 148.06320995 C133.18481908 154.05336686 133.82249803 160.04203968 134.46161938 166.03061771 C135.0078919 171.15439565 135.55001199 176.27860548 136.09063148 181.40298271 C136.34948078 183.85622085 136.60904604 186.30938356 136.86934471 188.76246834 C137.23208988 192.19159795 137.5898378 195.62121123 137.94604492 199.05102539 C138.10728851 200.56534653 138.10728851 200.56534653 138.27178955 202.11026001 C139.42427467 213.32625648 139.33534631 221.77842178 132 231 C126.30896757 235.55282594 120.35746342 237.47636734 113.04296875 237.25 C106.54337858 236.45463906 101.61669136 233.61669136 97 229 C89.47751114 218.76105683 90.24540722 203.54263219 89.02827644 191.29045296 C88.71706701 188.1665518 88.3995627 185.04334891 88.08018494 181.92027283 C87.17347 173.04993947 86.27233465 164.17908304 85.38891602 155.30639648 C84.84598406 149.85796299 84.29114597 144.41085374 83.72857475 138.9644146 C83.51717978 136.89522876 83.31028867 134.82557759 83.10801888 132.75547981 C82.82551902 129.8683476 82.52790349 126.98314385 82.22680664 124.09790039 C82.14722717 123.24640915 82.06764771 122.39491791 81.98565674 121.5176239 C81.23587327 114.58954508 78.77185773 110.62153616 74.0625 105.5 C73.26714844 104.63117188 72.47179687 103.76234375 71.65234375 102.8671875 C70.77707031 101.92101562 69.90179688 100.97484375 69 100 C68.04278046 98.96111095 67.08575493 97.92204313 66.12890625 96.8828125 C64.10258903 94.68403568 62.073614 92.48774873 60.04296875 90.29296875 C55.79928568 85.70429271 51.57959459 81.09368397 47.35888672 76.48388672 C45.07357504 73.98835593 42.7867042 71.49425473 40.5 69 C39.58332596 68.00000675 38.6666593 67.00000676 37.75 66 C37.29625 65.505 36.8425 65.01 36.375 64.5 C35 63 33.625 61.5 32.25 60 C31.79592773 59.50483887 31.34185547 59.00967773 30.87402344 58.49951172 C29.95984468 57.50184187 29.04642959 56.50347171 28.13378906 55.50439453 C25.80990152 52.96238336 23.47297835 50.43485256 21.109375 47.9296875 C6.95775141 32.87063156 1.70634738 20.40881273 0 0 Z " fill="#FE8701" transform="translate(145,180)"/>
<path d="M0 0 C3.22370429 1.0745681 3.74568921 1.6055631 5.8125 4.125 C9.37594911 8.33153441 13.1013154 12.3582883 16.875 16.375 C21.5462279 21.3576431 26.16838442 26.37505718 30.71875 31.46875 C32.97306052 33.97010825 35.25230452 36.44591864 37.54150391 38.9152832 C39.09193036 40.58929437 40.63615878 42.26884883 42.1796875 43.94921875 C43.87164293 45.78926283 45.58028126 47.59884244 47.3203125 49.39453125 C50.02825774 52.26144494 51.78385859 54.13543435 52.75 58 C49.71572377 70.13710494 38.41306929 76.23162341 28.625 82.625 C21.32089283 87.44124776 14.05879192 92.29171766 6.9375 97.375 C1.36348862 101.34928921 -4.25885714 105.22433755 -9.97558594 108.99047852 C-13.84122524 111.5427136 -17.66836344 114.14389881 -21.4765625 116.78125 C-22.44053955 117.44664795 -23.4045166 118.1120459 -24.39770508 118.79760742 C-26.28915068 120.10509553 -28.17722593 121.4174779 -30.0612793 122.7355957 C-39.36860865 129.15523381 -47.35517829 134.61484431 -59 133 C-65.68318291 130.99504513 -70.84082817 127.02284056 -74.875 121.375 C-77.83579334 115.12443628 -78.06614589 108.02500023 -76.3046875 101.375 C-73.01808785 93.58454157 -66.85195833 89.51891151 -60 85 C-58.10893763 83.7415424 -56.21836186 82.48235346 -54.328125 81.22265625 C-53.2858374 80.52849609 -52.2435498 79.83433594 -51.16967773 79.11914062 C-46.19798343 75.79523193 -41.25466406 72.43009837 -36.3125 69.0625 C-34.14069234 67.58323432 -31.96883006 66.10404922 -29.796875 64.625 C-29.24479874 64.24896133 -28.69272247 63.87292267 -28.12391663 63.48548889 C-24.64075526 61.11392721 -21.15369401 58.74821926 -17.66352844 56.38697815 C-15.35198599 54.8230776 -13.04149717 53.25762412 -10.73104858 51.69210815 C-9.08708376 50.57914322 -7.44162399 49.46838749 -5.79614258 48.35766602 C-4.30570435 47.34724243 -4.30570435 47.34724243 -2.78515625 46.31640625 C-1.90738525 45.72287354 -1.02961426 45.12934082 -0.12524414 44.51782227 C2.07583566 43.03380654 2.07583566 43.03380654 4 41 C3.89090566 38.31236405 3.66204615 35.76564689 3.3203125 33.10546875 C3.22869843 32.3210994 3.13708435 31.53673004 3.04269409 30.72859192 C2.74709637 28.21354353 2.43664719 25.70060567 2.125 23.1875 C1.82326798 20.68485663 1.52463888 18.18188141 1.22872925 15.67854309 C1.04355134 14.11986434 0.85452789 12.56163635 0.66116333 11.00395203 C0.21392261 7.31435922 -0.11084251 3.71780452 0 0 Z " fill="#FE8701" transform="translate(161,227)"/>
<path d="M0 0 C3.95000426 2.04166887 6.30179758 4.17566145 7.9765625 8.26953125 C9.80358574 16.23013253 7.57023822 21.81647966 3.4375 28.66015625 C2.41541703 30.28409705 1.38635716 31.9036608 0.3515625 33.51953125 C-0.80469803 35.35594503 -1.95956795 37.19323488 -3.11328125 39.03125 C-3.7357373 40.02044434 -4.35819336 41.00963867 -4.99951172 42.02880859 C-8.40039429 47.4743231 -11.73558946 52.95956548 -15.0668335 58.44787598 C-16.19661445 60.3084435 -17.32892734 62.16745287 -18.46142578 64.02636719 C-19.16324648 65.1815431 -19.86491388 66.33681217 -20.56640625 67.4921875 C-21.18539795 68.51062744 -21.80438965 69.52906738 -22.44213867 70.57836914 C-23.73420894 72.77730238 -24.92366112 74.97031018 -26.0234375 77.26953125 C-22.55773322 80.83270846 -19.05604779 84.291808 -15.2734375 87.51953125 C-11.86505292 90.45232729 -8.67944236 93.5702564 -5.5234375 96.76953125 C-1.83350265 100.50984924 1.95159943 104.0519247 5.94921875 107.4609375 C9.28652047 110.43814501 12.37611084 113.66076565 15.515625 116.84375 C17.72703759 119.02357098 19.99035297 121.06754208 22.3515625 123.08203125 C30.67146728 130.20857595 30.67146728 130.20857595 31.21484375 135.66015625 C31.40503244 142.98742564 30.36667446 146.62829989 25.2890625 152.08203125 C21.69227528 153.92903009 18.00578728 154.55778061 13.9765625 154.26953125 C7.87685483 152.30072889 4.07584645 149.01593233 -0.4609375 144.58203125 C-1.11908447 143.95353271 -1.77723145 143.32503418 -2.45532227 142.67749023 C-6.45914451 138.84001946 -10.39326191 134.93520342 -14.28125 130.98046875 C-16.07163243 129.22220081 -17.92927983 127.58802757 -19.8359375 125.95703125 C-23.22539355 123.04702674 -26.38795203 119.94793183 -29.5234375 116.76953125 C-32.59733605 113.65373256 -35.69045941 110.61075847 -39.0234375 107.76953125 C-44.32214357 103.24651205 -49.13409007 98.22465465 -54.0234375 93.26953125 C-54.91675781 92.39554687 -55.81007812 91.5215625 -56.73046875 90.62109375 C-59.98156775 87.28691727 -61.38590402 85.06518464 -61.6484375 80.45703125 C-61.46297828 73.3261244 -58.13328799 68.27020185 -54.40136719 62.44140625 C-52.87781381 60.04000107 -51.40505773 57.61180095 -49.9375 55.17578125 C-46.32846707 49.18915639 -42.67964909 43.22743483 -39.0234375 37.26953125 C-38.50508331 36.42482269 -38.50508331 36.42482269 -37.97625732 35.56304932 C-28.92313453 20.81243125 -28.92313453 20.81243125 -24.69775391 13.98681641 C-23.64251825 12.27425111 -22.59656964 10.55589501 -21.56396484 8.82958984 C-21.13422363 8.11754395 -20.70448242 7.40549805 -20.26171875 6.671875 C-19.90247314 6.06722412 -19.54322754 5.46257324 -19.1730957 4.83959961 C-14.71246542 -1.25220615 -6.84006007 -2.4692881 0 0 Z " fill="#FE8701" transform="translate(201.0234375,83.73046875)"/>
<path d="M0 0 C6.96532314 7.66007404 9.92412873 16.56450412 9.890625 26.828125 C9.88839432 27.60433197 9.88616364 28.38053894 9.88386536 29.18026733 C9.70928169 37.84559323 8.05886125 46.15864899 6.27883911 54.61578369 C5.31256187 59.22260623 4.4107677 63.84211632 3.50390625 68.4609375 C3.23783318 69.80794235 3.23783318 69.80794235 2.96638489 71.18215942 C-0.64316472 89.60261006 -2.01810094 107.93493155 -2.47265625 126.6796875 C-11.49445758 119.01298534 -20.18041958 111.06179283 -28.4921875 102.62890625 C-31.02848947 100.13262483 -33.68814998 97.893013 -36.47265625 95.6796875 C-34.75232667 90.72632474 -32.05889248 86.4482919 -29.34765625 81.9921875 C-28.83211182 81.13874756 -28.31656738 80.28530762 -27.78540039 79.40600586 C-21.28460151 68.67075043 -14.68853622 57.99297242 -8.09155273 47.31665039 C-7.55731689 46.44645264 -7.02308105 45.57625488 -6.47265625 44.6796875 C-5.92085693 43.79192627 -5.36905762 42.90416504 -4.80053711 41.98950195 C-2.55810833 38.08885501 -2.36147664 34.11992327 -2.47265625 29.6796875 C-4.18572645 23.87428293 -7.07060848 19.73977613 -12.3046875 16.5703125 C-14.88582627 15.50995279 -16.93463371 15.30989662 -19.72265625 15.2421875 C-20.6146875 15.20222656 -21.50671875 15.16226563 -22.42578125 15.12109375 C-27.57031694 16.06425863 -31.67387433 18.44813569 -34.97753906 22.54663086 C-36.41002208 24.77450242 -37.70263472 27.04289564 -38.97265625 29.3671875 C-39.99385828 31.1510212 -41.01742482 32.93350271 -42.04296875 34.71484375 C-42.58727539 35.6702002 -43.13158203 36.62555664 -43.69238281 37.60986328 C-46.96071794 43.24563479 -50.41548996 48.76784022 -53.84765625 54.3046875 C-55.16876467 56.44221662 -56.48910674 58.58021961 -57.80859375 60.71875 C-58.42444336 61.71551758 -59.04029297 62.71228516 -59.67480469 63.73925781 C-61.93879993 67.44207676 -64.14305069 71.17880438 -66.33056641 74.92724609 C-66.70745605 75.50555176 -67.0843457 76.08385742 -67.47265625 76.6796875 C-67.80265625 76.6796875 -68.13265625 76.6796875 -68.47265625 76.6796875 C-68.33026788 74.63777769 -68.18358597 72.59616705 -68.03515625 70.5546875 C-67.95394531 69.41773438 -67.87273437 68.28078125 -67.7890625 67.109375 C-67.4953466 63.9256397 -67.04141312 60.82457843 -66.47265625 57.6796875 C-67.13265625 57.6796875 -67.79265625 57.6796875 -68.47265625 57.6796875 C-68.57288086 58.46617676 -68.67310547 59.25266602 -68.77636719 60.06298828 C-69.24225379 63.64587807 -69.73219904 67.22508191 -70.22265625 70.8046875 C-70.45855469 72.6609375 -70.45855469 72.6609375 -70.69921875 74.5546875 C-72.33100375 86.22822635 -72.33100375 86.22822635 -76.47265625 90.6796875 C-77.13265625 90.6796875 -77.79265625 90.6796875 -78.47265625 90.6796875 C-79.98144531 88.97070313 -79.98144531 88.97070313 -81.73828125 86.5859375 C-82.38152344 85.7196875 -83.02476562 84.8534375 -83.6875 83.9609375 C-84.35910156 83.043125 -85.03070313 82.1253125 -85.72265625 81.1796875 C-86.37878906 80.2928125 -87.03492187 79.4059375 -87.7109375 78.4921875 C-89.0133874 76.73142024 -90.31282424 74.96841994 -91.60913086 73.203125 C-93.80544889 70.22904624 -96.04177845 67.28678333 -98.29223633 64.35351562 C-101.4526216 59.87210892 -101.68591323 55.9387157 -101.0546875 50.70703125 C-99.18767865 44.20382593 -94.71526073 41.34625338 -89.41015625 37.6796875 C-87.7732607 36.52368781 -86.13654694 35.36743067 -84.5 34.2109375 C-83.6632373 33.62441406 -82.82647461 33.03789063 -81.96435547 32.43359375 C-78.10738782 29.71867551 -74.29129411 26.94811576 -70.47265625 24.1796875 C-68.98455488 23.10521957 -67.49627269 22.03100204 -66.0078125 20.95703125 C-62.88735168 18.70370436 -59.77072614 16.44518451 -56.65625 14.18359375 C-55.86154297 13.60738281 -55.06683594 13.03117187 -54.24804688 12.4375 C-52.74703659 11.3490481 -51.24695454 10.25931435 -49.74804688 9.16796875 C-46.1102002 6.53214333 -42.44366542 3.94282155 -38.73046875 1.4140625 C-37.67110107 0.69234863 -37.67110107 0.69234863 -36.59033203 -0.04394531 C-26.23786169 -6.28359425 -9.84701739 -8.13763295 0 0 Z " fill="#FE8701" transform="translate(214.47265625,65.3203125)"/>
<path d="M0 0 C8.74141767 6.50749982 14.48373971 16.32399194 16.28125 27.04296875 C17.6398461 40.21208778 14.48980362 51.56951395 6.4375 62.25 C-3.30192752 71.76292921 -14.71483247 75.99211517 -28.25 75.875 C-38.216004 75.17900864 -47.81443524 70.43940124 -55.25 63.875 C-63.31863641 54.46438664 -67.81941918 43.26435879 -67.06640625 30.84765625 C-65.73450116 19.29990184 -61.36351141 9.82543511 -52.82421875 1.8515625 C-36.99030321 -10.30619359 -16.60702589 -10.51612567 0 0 Z " fill="#FE8701" transform="translate(284.25,7.125)"/>
</svg>
